<?xml version="1.0" encoding="UTF-8"?>
<svg xmlns="http://www.w3.org/2000/svg" xmlns:xlink="http://www.w3.org/1999/xlink" width="20px" height="20px" viewBox="0 0 20 19" version="1.1">
<defs>
<linearGradient id="linear0" gradientUnits="userSpaceOnUse" x1="6.00017" y1="32.9999" x2="235" y2="344" gradientTransform="matrix(0.0487805,0,0,0.0470297,0,0)">
<stop offset="0" style="stop-color:rgb(25.490196%,81.960784%,100%);stop-opacity:1;"/>
<stop offset="1" style="stop-color:rgb(74.117647%,20.392157%,99.607843%);stop-opacity:1;"/>
</linearGradient>
<linearGradient id="linear1" gradientUnits="userSpaceOnUse" x1="194.651" y1="8.81818" x2="236.076" y2="292.989" gradientTransform="matrix(0.0487805,0,0,0.0470297,0,0)">
<stop offset="0" style="stop-color:rgb(100%,91.764706%,51.372549%);stop-opacity:1;"/>
<stop offset="0.0833333" style="stop-color:rgb(100%,86.666667%,20.784314%);stop-opacity:1;"/>
<stop offset="1" style="stop-color:rgb(100%,65.882353%,0%);stop-opacity:1;"/>
</linearGradient>
</defs>
<g id="surface1">
<path style=" stroke:none;fill-rule:nonzero;fill:url(#linear0);" d="M 19.496094 2.800781 L 10.519531 18.273438 C 10.332031 18.59375 9.859375 18.59375 9.667969 18.277344 L 0.515625 2.800781 C 0.3125 2.453125 0.617188 2.035156 1.027344 2.105469 L 10.011719 3.652344 C 10.066406 3.664062 10.125 3.664062 10.183594 3.652344 L 18.980469 2.105469 C 19.386719 2.035156 19.695312 2.453125 19.496094 2.800781 Z M 19.496094 2.800781 "/>
<path style=" stroke:none;fill-rule:nonzero;fill:url(#linear1);" d="M 14.289062 0.0742188 L 7.648438 1.328125 C 7.539062 1.347656 7.457031 1.4375 7.453125 1.546875 L 7.042969 8.199219 C 7.035156 8.355469 7.183594 8.476562 7.34375 8.441406 L 9.191406 8.03125 C 9.363281 7.992188 9.519531 8.140625 9.484375 8.304688 L 8.9375 10.898438 C 8.898438 11.074219 9.070312 11.222656 9.246094 11.171875 L 10.386719 10.835938 C 10.566406 10.785156 10.734375 10.9375 10.699219 11.109375 L 9.824219 15.183594 C 9.769531 15.441406 10.121094 15.578125 10.269531 15.359375 L 10.367188 15.214844 L 15.777344 4.800781 C 15.867188 4.625 15.710938 4.425781 15.515625 4.464844 L 13.609375 4.820312 C 13.429688 4.851562 13.28125 4.691406 13.328125 4.523438 L 14.570312 0.371094 C 14.621094 0.199219 14.46875 0.0390625 14.289062 0.0742188 Z M 14.289062 0.0742188 "/>
</g>
</svg>
