<?xml version="1.0" encoding="UTF-8"?>
<svg xmlns="http://www.w3.org/2000/svg" xmlns:xlink="http://www.w3.org/1999/xlink" width="15px" height="14px" viewBox="0 0 15 14" version="1.1">
<g id="surface1">
<path style=" stroke:none;fill-rule:nonzero;fill:rgb(0%,84.705882%,100%);fill-opacity:1;" d="M 12.308594 4.53125 C 12.148438 4.476562 11.988281 4.421875 11.828125 4.375 C 11.855469 4.257812 11.878906 4.140625 11.902344 4.027344 C 12.265625 2.167969 12.027344 0.671875 11.214844 0.175781 C 10.433594 -0.292969 9.15625 0.199219 7.863281 1.375 C 7.738281 1.492188 7.613281 1.613281 7.492188 1.738281 C 7.410156 1.652344 7.328125 1.574219 7.242188 1.496094 C 5.894531 0.234375 4.535156 -0.296875 3.722656 0.199219 C 2.941406 0.671875 2.710938 2.082031 3.039062 3.84375 C 3.074219 4.019531 3.109375 4.191406 3.152344 4.363281 C 2.960938 4.421875 2.773438 4.480469 2.597656 4.546875 C 1.011719 5.128906 0 6.035156 0 6.980469 C 0 7.953125 1.085938 8.929688 2.738281 9.523438 C 2.871094 9.570312 3.007812 9.617188 3.140625 9.65625 C 3.097656 9.84375 3.058594 10.027344 3.023438 10.21875 C 2.710938 11.949219 2.957031 13.324219 3.734375 13.792969 C 4.539062 14.28125 5.886719 13.78125 7.203125 12.578125 C 7.304688 12.476562 7.410156 12.378906 7.511719 12.273438 C 7.644531 12.40625 7.78125 12.535156 7.917969 12.660156 C 9.191406 13.8125 10.449219 14.273438 11.222656 13.800781 C 12.027344 13.316406 12.289062 11.835938 11.949219 10.042969 C 11.921875 9.898438 11.894531 9.761719 11.859375 9.621094 C 11.953125 9.589844 12.046875 9.5625 12.136719 9.527344 C 13.855469 8.933594 14.96875 7.964844 14.96875 6.980469 C 14.96875 6.03125 13.925781 5.117188 12.308594 4.53125 Z M 11.9375 8.890625 C 11.855469 8.921875 11.773438 8.949219 11.683594 8.976562 C 11.496094 8.34375 11.238281 7.675781 10.929688 6.984375 C 11.226562 6.308594 11.472656 5.644531 11.65625 5.019531 C 11.808594 5.066406 11.957031 5.117188 12.101562 5.167969 C 13.488281 5.667969 14.332031 6.410156 14.332031 6.980469 C 14.332031 7.589844 13.417969 8.375 11.9375 8.890625 Z M 11.320312 10.171875 C 11.472656 10.964844 11.492188 11.683594 11.394531 12.246094 C 11.304688 12.75 11.125 13.085938 10.90625 13.222656 C 10.433594 13.507812 9.421875 13.136719 8.335938 12.152344 C 8.207031 12.035156 8.082031 11.914062 7.957031 11.792969 C 8.378906 11.308594 8.800781 10.746094 9.214844 10.117188 C 9.9375 10.050781 10.621094 9.941406 11.242188 9.789062 C 11.269531 9.917969 11.296875 10.042969 11.320312 10.171875 Z M 5.101562 13.171875 C 4.644531 13.34375 4.277344 13.347656 4.054688 13.214844 C 3.582031 12.925781 3.386719 11.824219 3.652344 10.34375 C 3.683594 10.167969 3.71875 9.996094 3.761719 9.820312 C 4.375 9.964844 5.054688 10.066406 5.78125 10.128906 C 6.195312 10.738281 6.628906 11.300781 7.066406 11.792969 C 6.972656 11.886719 6.878906 11.980469 6.78125 12.070312 C 6.199219 12.605469 5.617188 12.980469 5.101562 13.171875 Z M 2.945312 8.886719 C 2.214844 8.625 1.609375 8.285156 1.199219 7.914062 C 0.828125 7.582031 0.640625 7.25 0.640625 6.980469 C 0.640625 6.40625 1.453125 5.675781 2.808594 5.183594 C 2.972656 5.121094 3.144531 5.066406 3.324219 5.011719 C 3.511719 5.652344 3.757812 6.320312 4.054688 6.996094 C 3.753906 7.683594 3.503906 8.363281 3.3125 9.011719 C 3.191406 8.972656 3.066406 8.933594 2.945312 8.886719 Z M 3.667969 3.714844 C 3.386719 2.203125 3.574219 1.066406 4.042969 0.777344 C 4.546875 0.476562 5.652344 0.910156 6.820312 1.996094 C 6.898438 2.070312 6.972656 2.140625 7.042969 2.214844 C 6.609375 2.707031 6.179688 3.265625 5.769531 3.871094 C 5.066406 3.941406 4.390625 4.050781 3.773438 4.199219 C 3.734375 4.039062 3.699219 3.875 3.667969 3.714844 Z M 10.125 5.386719 C 9.980469 5.121094 9.828125 4.859375 9.671875 4.601562 C 10.148438 4.664062 10.605469 4.75 11.035156 4.855469 C 10.90625 5.285156 10.746094 5.742188 10.558594 6.207031 C 10.417969 5.929688 10.273438 5.660156 10.125 5.386719 Z M 7.492188 2.695312 C 7.785156 3.03125 8.082031 3.40625 8.375 3.8125 C 7.785156 3.78125 7.195312 3.78125 6.605469 3.8125 C 6.894531 3.410156 7.191406 3.035156 7.492188 2.695312 Z M 4.84375 5.394531 C 4.695312 5.660156 4.554688 5.933594 4.417969 6.207031 C 4.234375 5.742188 4.074219 5.285156 3.945312 4.847656 C 4.371094 4.746094 4.828125 4.664062 5.300781 4.601562 C 5.144531 4.859375 4.988281 5.125 4.84375 5.394531 Z M 5.3125 9.40625 C 4.824219 9.347656 4.363281 9.269531 3.933594 9.171875 C 4.066406 8.722656 4.230469 8.257812 4.421875 7.785156 C 4.554688 8.058594 4.699219 8.332031 4.84375 8.597656 C 4.996094 8.871094 5.152344 9.144531 5.3125 9.40625 Z M 7.511719 11.3125 C 7.207031 10.96875 6.90625 10.589844 6.609375 10.179688 C 6.898438 10.191406 7.1875 10.199219 7.484375 10.199219 C 7.789062 10.199219 8.09375 10.191406 8.390625 10.175781 C 8.097656 10.59375 7.804688 10.972656 7.511719 11.3125 Z M 10.5625 7.761719 C 10.761719 8.238281 10.933594 8.703125 11.066406 9.144531 C 10.632812 9.25 10.164062 9.332031 9.667969 9.394531 C 9.828125 9.128906 9.980469 8.863281 10.128906 8.59375 C 10.277344 8.320312 10.425781 8.042969 10.5625 7.761719 Z M 9.574219 8.257812 C 9.347656 8.671875 9.109375 9.078125 8.855469 9.472656 C 8.398438 9.507812 7.941406 9.527344 7.484375 9.527344 C 7.019531 9.527344 6.566406 9.511719 6.128906 9.480469 C 5.871094 9.085938 5.628906 8.679688 5.398438 8.261719 C 5.167969 7.847656 4.957031 7.425781 4.757812 6.996094 C 4.957031 6.566406 5.167969 6.140625 5.398438 5.730469 C 5.625 5.3125 5.863281 4.910156 6.121094 4.515625 C 6.566406 4.480469 7.023438 4.460938 7.484375 4.460938 C 7.949219 4.460938 8.40625 4.480469 8.851562 4.515625 C 9.105469 4.910156 9.347656 5.3125 9.574219 5.726562 C 9.800781 6.136719 10.015625 6.558594 10.21875 6.988281 C 10.019531 7.417969 9.804688 7.84375 9.574219 8.257812 Z M 10.894531 0.757812 C 11.394531 1.0625 11.589844 2.289062 11.273438 3.894531 C 11.253906 3.996094 11.234375 4.101562 11.207031 4.203125 C 10.585938 4.054688 9.914062 3.945312 9.207031 3.875 C 8.796875 3.257812 8.367188 2.699219 7.941406 2.214844 C 8.050781 2.101562 8.167969 1.992188 8.285156 1.882812 C 9.390625 0.875 10.425781 0.472656 10.894531 0.757812 Z M 7.484375 5.578125 C 8.222656 5.578125 8.824219 6.203125 8.824219 6.980469 C 8.824219 7.753906 8.222656 8.382812 7.484375 8.382812 C 6.746094 8.382812 6.148438 7.753906 6.148438 6.980469 C 6.148438 6.203125 6.746094 5.578125 7.484375 5.578125 Z M 7.484375 5.578125 "/>
</g>
</svg>
