<?xml version="1.0" encoding="UTF-8"?>
<svg xmlns="http://www.w3.org/2000/svg" xmlns:xlink="http://www.w3.org/1999/xlink" width="35px" height="32px" viewBox="0 0 35 32" version="1.1">
<g id="surface1">
<path style=" stroke:none;fill-rule:nonzero;fill:rgb(0%,84.705882%,100%);fill-opacity:1;" d="M 28.722656 10.359375 C 28.347656 10.230469 27.972656 10.109375 27.597656 9.996094 C 27.660156 9.730469 27.71875 9.464844 27.769531 9.207031 C 28.621094 4.957031 28.066406 1.535156 26.164062 0.40625 C 24.34375 -0.671875 21.363281 0.453125 18.351562 3.144531 C 18.054688 3.414062 17.765625 3.6875 17.484375 3.96875 C 17.292969 3.78125 17.101562 3.597656 16.902344 3.417969 C 13.75 0.539062 10.585938 -0.675781 8.6875 0.453125 C 6.867188 1.539062 6.328125 4.757812 7.09375 8.785156 C 7.171875 9.183594 7.257812 9.578125 7.351562 9.976562 C 6.90625 10.105469 6.472656 10.242188 6.058594 10.390625 C 2.363281 11.71875 0 13.796875 0 15.953125 C 0 18.179688 2.535156 20.414062 6.386719 21.765625 C 6.699219 21.878906 7.015625 21.980469 7.332031 22.074219 C 7.230469 22.496094 7.136719 22.921875 7.058594 23.355469 C 6.328125 27.3125 6.898438 30.453125 8.710938 31.53125 C 10.589844 32.644531 13.738281 31.5 16.804688 28.746094 C 17.046875 28.519531 17.292969 28.292969 17.53125 28.054688 C 17.839844 28.359375 18.152344 28.652344 18.472656 28.941406 C 21.445312 31.570312 24.378906 32.628906 26.1875 31.546875 C 28.066406 30.433594 28.671875 27.054688 27.878906 22.953125 C 27.820312 22.628906 27.75 22.308594 27.671875 21.988281 C 27.894531 21.921875 28.109375 21.855469 28.320312 21.78125 C 32.328125 20.417969 34.929688 18.207031 34.929688 15.953125 C 34.929688 13.789062 32.496094 11.699219 28.722656 10.359375 Z M 27.851562 20.324219 C 27.660156 20.390625 27.46875 20.453125 27.265625 20.515625 C 26.824219 19.074219 26.226562 17.542969 25.5 15.960938 C 26.191406 14.417969 26.765625 12.90625 27.195312 11.476562 C 27.554688 11.582031 27.902344 11.695312 28.234375 11.8125 C 31.46875 12.957031 33.4375 14.648438 33.4375 15.953125 C 33.4375 17.34375 31.308594 19.144531 27.851562 20.324219 Z M 26.417969 23.246094 C 26.765625 25.0625 26.816406 26.703125 26.585938 27.988281 C 26.375 29.140625 25.960938 29.914062 25.445312 30.222656 C 24.34375 30.875 21.988281 30.023438 19.449219 27.777344 C 19.148438 27.511719 18.855469 27.234375 18.570312 26.953125 C 19.554688 25.847656 20.539062 24.558594 21.5 23.128906 C 23.1875 22.976562 24.78125 22.722656 26.230469 22.378906 C 26.296875 22.667969 26.363281 22.957031 26.417969 23.246094 Z M 11.90625 30.109375 C 10.835938 30.496094 9.976562 30.511719 9.457031 30.203125 C 8.355469 29.546875 7.898438 27.023438 8.523438 23.640625 C 8.597656 23.238281 8.679688 22.84375 8.777344 22.449219 C 10.210938 22.773438 11.792969 23.007812 13.488281 23.148438 C 14.453125 24.546875 15.464844 25.832031 16.484375 26.957031 C 16.269531 27.171875 16.046875 27.386719 15.820312 27.589844 C 14.464844 28.808594 13.105469 29.671875 11.90625 30.109375 Z M 6.871094 20.316406 C 5.167969 19.714844 3.757812 18.9375 2.796875 18.089844 C 1.929688 17.328125 1.492188 16.570312 1.492188 15.953125 C 1.492188 14.644531 3.386719 12.976562 6.550781 11.84375 C 6.933594 11.703125 7.339844 11.578125 7.753906 11.453125 C 8.191406 12.917969 8.765625 14.445312 9.457031 15.988281 C 8.757812 17.558594 8.171875 19.113281 7.730469 20.59375 C 7.445312 20.507812 7.15625 20.417969 6.871094 20.316406 Z M 8.558594 8.488281 C 7.902344 5.039062 8.339844 2.433594 9.4375 1.78125 C 10.605469 1.085938 13.191406 2.078125 15.914062 4.566406 C 16.09375 4.730469 16.265625 4.894531 16.4375 5.0625 C 15.421875 6.183594 14.421875 7.460938 13.460938 8.851562 C 11.820312 9.007812 10.246094 9.261719 8.800781 9.597656 C 8.710938 9.230469 8.628906 8.859375 8.558594 8.488281 Z M 23.628906 12.316406 C 23.285156 11.707031 22.929688 11.109375 22.566406 10.519531 C 23.679688 10.664062 24.746094 10.859375 25.75 11.09375 C 25.449219 12.082031 25.074219 13.121094 24.632812 14.1875 C 24.308594 13.554688 23.972656 12.933594 23.628906 12.316406 Z M 17.484375 6.160156 C 18.167969 6.925781 18.859375 7.785156 19.539062 8.710938 C 18.164062 8.644531 16.785156 8.644531 15.410156 8.710938 C 16.089844 7.792969 16.78125 6.9375 17.484375 6.160156 Z M 11.300781 12.328125 C 10.953125 12.9375 10.625 13.558594 10.3125 14.183594 C 9.878906 13.125 9.503906 12.082031 9.203125 11.078125 C 10.199219 10.847656 11.261719 10.660156 12.371094 10.515625 C 12 11.109375 11.640625 11.714844 11.300781 12.328125 Z M 12.398438 21.5 C 11.257812 21.367188 10.179688 21.191406 9.179688 20.964844 C 9.492188 19.941406 9.871094 18.878906 10.316406 17.796875 C 10.628906 18.421875 10.960938 19.042969 11.304688 19.652344 C 11.660156 20.28125 12.023438 20.898438 12.398438 21.5 Z M 17.523438 25.855469 C 16.816406 25.070312 16.113281 24.203125 15.421875 23.265625 C 16.09375 23.296875 16.773438 23.308594 17.464844 23.308594 C 18.175781 23.308594 18.882812 23.292969 19.574219 23.261719 C 18.894531 24.210938 18.207031 25.078125 17.523438 25.855469 Z M 24.648438 17.738281 C 25.113281 18.832031 25.507812 19.890625 25.820312 20.898438 C 24.808594 21.140625 23.714844 21.328125 22.5625 21.472656 C 22.929688 20.867188 23.285156 20.261719 23.632812 19.640625 C 23.984375 19.015625 24.324219 18.382812 24.648438 17.738281 Z M 22.339844 18.875 C 21.808594 19.824219 21.253906 20.75 20.664062 21.65625 C 19.597656 21.734375 18.53125 21.773438 17.464844 21.773438 C 16.378906 21.773438 15.324219 21.738281 14.304688 21.671875 C 13.699219 20.765625 13.132812 19.835938 12.59375 18.886719 C 12.0625 17.941406 11.566406 16.976562 11.105469 15.988281 C 11.566406 15.007812 12.0625 14.039062 12.59375 13.09375 C 13.121094 12.144531 13.683594 11.222656 14.285156 10.320312 C 15.324219 10.238281 16.390625 10.199219 17.464844 10.199219 C 18.546875 10.199219 19.617188 10.238281 20.652344 10.324219 C 21.246094 11.222656 21.808594 12.140625 22.335938 13.085938 C 22.871094 14.027344 23.367188 14.988281 23.839844 15.96875 C 23.375 16.953125 22.875 17.925781 22.339844 18.875 Z M 25.417969 1.734375 C 26.589844 2.429688 27.042969 5.230469 26.308594 8.898438 C 26.261719 9.132812 26.210938 9.371094 26.152344 9.609375 C 24.703125 9.265625 23.128906 9.015625 21.480469 8.855469 C 20.523438 7.449219 19.527344 6.171875 18.527344 5.0625 C 18.789062 4.800781 19.058594 4.550781 19.332031 4.304688 C 21.910156 1.996094 24.324219 1.082031 25.417969 1.734375 Z M 17.464844 12.746094 C 19.1875 12.746094 20.585938 14.179688 20.585938 15.953125 C 20.585938 17.726562 19.1875 19.164062 17.464844 19.164062 C 15.742188 19.164062 14.34375 17.726562 14.34375 15.953125 C 14.34375 14.179688 15.742188 12.746094 17.464844 12.746094 Z M 17.464844 12.746094 "/>
</g>
</svg>
